g Fish_Fillet_Whole
v 0.2532568 0.5885508 0.0692749
v 0.2615149 0.4172508 0.07047851
v 0.1505432 0.4172508 0.1077966
v 0.1457764 0.5884129 0.1068793
v -0.001044922 0.4172508 0.09380737
v -0.001044922 0.5883622 0.09346069
v -0.1526343 0.4172508 0.1077966
v -0.1478674 0.5884123 0.106879
v -0.263606 0.4172508 0.07047851
v -0.2553479 0.5885503 0.06927429
v -0.3042236 0.4172508 0.007645263
v -0.2946887 0.5887388 0.007694092
v 0.2925977 0.5887388 0.007694092
v 0.3021325 0.4172508 0.007645263
v 0.1415979 0.2465049 0.1069324
v 0.2460217 0.2461399 0.06933898
v -0.001044922 0.2466392 0.09349915
v -0.143689 0.2465049 0.1069324
v -0.2481128 0.2461399 0.06933898
v -0.286333 0.2456413 0.007764892
v 0.2842432 0.2456413 0.007764892
v 0.1270373 0.1179222 0.1026263
v 0.2208008 0.1104881 0.06610595
v -0.001044922 0.1206431 0.09038147
v -0.1291284 0.1179222 0.1026263
v -0.2228906 0.1104881 0.06610595
v -0.2572107 0.1003331 0.01013916
v 0.2551196 0.1003331 0.01013916
v 0.1073926 0.01181379 0.09563538
v 0.1867749 -0.005826587 0.06283996
v -0.001044922 0.01827009 0.08362182
v -0.1094836 0.01181379 0.09563538
v -0.1888672 -0.005826587 0.06283996
v -0.2179224 -0.02992267 0.01687195
v 0.2158313 -0.02992267 0.01687195
v 0.09131103 -0.08734758 0.0719812
v 0.1600366 -0.1029781 0.05129211
v -0.001035156 -0.08206743 0.06194275
v -0.09338012 -0.08734758 0.0719812
v -0.1622009 -0.1028261 0.05122253
v -0.1891052 -0.1241103 0.02184509
v 0.186886 -0.1242983 0.02196655
v 0.07509277 -0.1878005 0.05037903
v 0.1350757 -0.1857509 0.03736694
v 0.1298181 -0.2030684 0.02043556
v 0.07469116 -0.2078157 0.03314026
v -0.001022949 -0.1790633 0.04352539
v 0.07469116 -0.2078157 0.03314026
v -0.001020508 -0.1995894 0.0269696
v -0.07713745 -0.1878084 0.0503772
v -0.07672974 -0.2078078 0.03315979
v -0.1382727 -0.1844295 0.03735046
v -0.07672974 -0.2078078 0.03315979
v -0.1295833 -0.2034364 0.01999756
v -0.1663086 -0.1794002 0.01995056
v -0.1295833 -0.2034364 0.01999756
v 0.1635242 -0.1809548 0.02004639
v 0.1298181 -0.2030684 0.02043556
v -0.2946887 0.5887388 0.007694092
v -0.3042236 0.4172508 0.007645263
v -0.263606 0.4172508 -0.06101196
v -0.2553479 0.5889274 -0.05884491
v -0.1526343 0.4172508 -0.1113501
v -0.1478674 0.5890654 -0.1076007
v -0.001044922 0.4172508 -0.104693
v -0.001044922 0.5891154 -0.1012372
v 0.1505432 0.4172508 -0.1113501
v 0.1457764 0.5890654 -0.1076007
v 0.2615149 0.4172508 -0.06101196
v 0.2532568 0.5889274 -0.05884491
v 0.3021325 0.4172508 0.007645263
v 0.2925977 0.5887388 0.007694092
v -0.2481128 0.245142 -0.05877441
v -0.286333 0.2456413 0.007764892
v -0.143689 0.244777 -0.1075293
v -0.001044922 0.2446434 -0.1011804
v 0.1415979 0.244777 -0.1075293
v 0.2460217 0.245142 -0.05877441
v 0.2842432 0.2456413 0.007764892
v -0.2228906 0.09017743 -0.04799866
v -0.2572107 0.1003331 0.01013916
v -0.1291284 0.08274335 -0.09003296
v -0.001044922 0.08002301 -0.08517639
v 0.1270373 0.08274335 -0.09003296
v 0.2208008 0.09017743 -0.04799866
v 0.2551196 0.1003331 0.01013916
v -0.1888672 -0.05401934 -0.02812927
v -0.2179224 -0.02992267 0.01687195
v -0.1094836 -0.07165973 -0.0602832
v -0.001044922 -0.07811602 -0.05826172
v 0.1073926 -0.07165973 -0.0602832
v 0.1867749 -0.05401934 -0.02812927
v 0.2158313 -0.02992267 0.01687195
v -0.1682483 -0.1423458 -0.01086365
v -0.1891052 -0.1241103 0.02184509
v -0.1006372 -0.1539498 -0.0381842
v -0.001035156 -0.1599611 -0.03847534
v 0.09856811 -0.1539498 -0.0381842
v 0.1660657 -0.1424941 -0.01073853
v 0.186886 -0.1242983 0.02196655
v -0.1480456 -0.1939516 -0.0005596924
v -0.1663086 -0.1794002 0.01995056
v -0.1295833 -0.2034364 0.01999756
v -0.08672486 -0.2073622 -0.01523804
v -0.1295833 -0.2034364 0.01999756
v -0.08013061 -0.2171669 0.008690796
v -0.001020508 -0.1992616 -0.01894348
v -0.08013061 -0.2171669 0.008690796
v -0.001020508 -0.2085134 0.005792236
v 0.08469604 -0.2072866 -0.015271
v 0.07808471 -0.2171559 0.008718872
v 0.1456604 -0.1893233 -0.0003710937
v 0.07808471 -0.2171559 0.008718872
v 0.1298181 -0.2030684 0.02043556
v 0.1635242 -0.1809548 0.02004639
v 0.1298181 -0.2030684 0.02043556
v -0.1400464 0.741414 0.0637207
v -0.1400024 0.7509117 0.007949829
v -0.001044922 0.7305315 0.005100403
v -0.001044922 0.7210814 0.04942444
v 0.1380176 0.7509123 0.007949829
v 0.137998 0.7414146 0.0637207
v 0.137998 0.7606297 -0.04831787
v -0.001044922 0.7405143 -0.03918152
v -0.1400452 0.7606291 -0.04831787
v 0.2289148 0.7342009 0.0510849
v 0.2564001 0.7345976 0.008618469
v 0.2274231 0.7485222 -0.03542846
v -0.25849 0.7345958 0.008618774
v -0.228645 0.7484111 -0.03442535
v -0.2312305 0.7341399 0.05137268
v -0.1400623 0.7380778 0.08434479
v -0.001044922 0.7163481 0.07292389
v 0.1379907 0.7380791 0.08434418
v 0.1379907 0.7645604 -0.07241394
v -0.001044922 0.7464104 -0.06729095
v -0.1400623 0.7645604 -0.07241516
v 0.2413415 0.7146354 0.06548248
v 0.1388855 0.7183305 0.1020578
v 0.1379907 0.7380791 0.08434418
v 0.2289148 0.7342009 0.0510849
v -0.001044922 0.696118 0.08990356
v -0.001044922 0.7163481 0.07292389
v 0.1379907 0.7380791 0.08434418
v -0.1400623 0.7380778 0.08434479
v -0.1409766 0.7183318 0.1020575
v -0.2434326 0.7146348 0.06548279
v -0.2312305 0.7341399 0.05137268
v -0.1400623 0.7380778 0.08434479
v -0.2810034 0.714334 0.008608398
v -0.25849 0.7345958 0.008618774
v -0.2312305 0.7341399 0.05137268
v 0.2789123 0.7143351 0.008608704
v 0.2289148 0.7342009 0.0510849
v 0.2564001 0.7345976 0.008618469
v -0.2810034 0.714334 0.008608398
v -0.2434119 0.731447 -0.05074982
v -0.228645 0.7484111 -0.03442535
v -0.25849 0.7345958 0.008618774
v -0.1409143 0.7485075 -0.09356323
v -0.1400623 0.7645604 -0.07241516
v -0.228645 0.7484111 -0.03442535
v -0.001044922 0.730659 -0.08845031
v -0.001044922 0.7464104 -0.06729095
v -0.1400623 0.7645604 -0.07241516
v 0.1379907 0.7645604 -0.07241394
v 0.1388232 0.7485063 -0.09356292
v 0.2413208 0.7314481 -0.05074951
v 0.2274231 0.7485222 -0.03542846
v 0.1379907 0.7645604 -0.07241394
v 0.2789123 0.7143351 0.008608704
v 0.2564001 0.7345976 0.008618469
v 0.2274231 0.7485222 -0.03542846
v 0.07808471 -0.2171559 0.008718872
v 0.07469116 -0.2078157 0.03314026
v 0.1298181 -0.2030684 0.02043556
v -0.001020508 -0.2085134 0.005792236
v -0.001020508 -0.1995894 0.0269696
v -0.08013061 -0.2171669 0.008690796
v -0.07672974 -0.2078078 0.03315979
v -0.1295833 -0.2034364 0.01999756
vt 0.5639648 0.5639648
vt 0.4414063 0.5610352
vt 0.4428711 0.6435547
vt 0.5649414 0.6455078
vt 0.4436035 0.7514648
vt 0.565918 0.7514648
vt 0.4433594 0.859375
vt 0.5644531 0.8574219
vt 0.442627 0.9418945
vt 0.5639648 0.9384766
vt 0.4416504 0.9951172
vt 0.5649414 0.9907227
vt 0.5649414 0.5102539
vt 0.4396973 0.5068359
vt 0.3227539 0.6513672
vt 0.3205566 0.5727539
vt 0.322998 0.7519531
vt 0.3232422 0.8525391
vt 0.3222656 0.9306641
vt 0.3178711 0.9824219
vt 0.3154297 0.5209961
vt 0.232666 0.6616211
vt 0.2248535 0.5913086
vt 0.234375 0.7519531
vt 0.2332764 0.8422852
vt 0.2264404 0.9130859
vt 0.2132568 0.9589844
vt 0.2111816 0.5458984
vt 0.1585693 0.675293
vt 0.1428223 0.6157227
vt 0.1617432 0.7519531
vt 0.1590576 0.8291016
vt 0.144043 0.8886719
vt 0.1205444 0.9248047
vt 0.1190186 0.5805664
vt 0.08642578 0.6855469
vt 0.07299805 0.6342773
vt 0.08837891 0.7524414
vt 0.08666992 0.8188477
vt 0.0736084 0.8706055
vt 0.05386353 0.8969727
vt 0.05303955 0.6083984
vt 0.01193237 0.6962891
vt 0.01197815 0.6518555
vt 0.001069069 0.6582031
vt 0.001081467 0.6938477
vt 0.01673889 0.7524414
vt 0.001083374 0.6982422
vt 0.00586319 0.7524414
vt 0.01165771 0.8081055
vt 0.0007481575 0.8066406
vt 0.01271057 0.8540039
vt 0.0008487701 0.8110352
vt 0.001761436 0.8476563
vt 0.01366425 0.8789063
vt 0.001275063 0.8579102
vt 0.01252747 0.6274414
vt 0.0007357597 0.6479492
vt 0.5791016 0.001897812
vt 0.4511719 0
vt 0.4543457 0.05822754
vt 0.5786133 0.0592041
vt 0.4575195 0.1447754
vt 0.5800781 0.1447754
vt 0.4594727 0.251709
vt 0.5820313 0.2504883
vt 0.4602051 0.3583984
vt 0.581543 0.355957
vt 0.4599609 0.4443359
vt 0.5820313 0.4404297
vt 0.4589844 0.5019531
vt 0.5839844 0.4960938
vt 0.3322754 0.07299805
vt 0.3254395 0.01786804
vt 0.3369141 0.1538086
vt 0.3383789 0.2531738
vt 0.3398438 0.3525391
vt 0.3383789 0.4335938
vt 0.3334961 0.4887695
vt 0.2233887 0.09375
vt 0.2205811 0.04501343
vt 0.2243652 0.1655273
vt 0.2230225 0.2543945
vt 0.2264404 0.34375
vt 0.2279053 0.4162598
vt 0.2268066 0.4658203
vt 0.1218872 0.1189575
vt 0.1282959 0.07775879
vt 0.1154785 0.1794434
vt 0.1106567 0.255127
vt 0.1160889 0.3312988
vt 0.1234741 0.3933105
vt 0.1308594 0.4353027
vt 0.05917358 0.133667
vt 0.06304932 0.1039429
vt 0.05636597 0.1846924
vt 0.05096436 0.2548828
vt 0.05575562 0.3259277
vt 0.05889893 0.3781738
vt 0.06268311 0.4091797
vt 0.02191162 0.1466064
vt 0.02662659 0.1251221
vt 0.01005554 0.1451416
vt 0.01450348 0.1920166
vt 0.00843811 0.1563721
vt 0.002016068 0.1923828
vt 0.01898193 0.2546387
vt 0.002548218 0.1953125
vt 0.005737305 0.2543945
vt 0.01308441 0.317627
vt 0.0008406639 0.3139648
vt 0.02331543 0.3647461
vt 0.000667572 0.3178711
vt 0.01052094 0.3591309
vt 0.02398682 0.3859863
vt 0.01122284 0.3671875
vt 0.7910156 0.6064453
vt 0.7504883 0.6069336
vt 0.7514648 0.7070313
vt 0.7841797 0.7070313
vt 0.7504883 0.8071289
vt 0.7910156 0.8076172
vt 0.7099609 0.8071289
vt 0.7192383 0.7070313
vt 0.7099609 0.6069336
vt 0.7827148 0.8725586
vt 0.7524414 0.8925781
vt 0.7197266 0.8710938
vt 0.7524414 0.5214844
vt 0.7207031 0.543457
vt 0.7827148 0.5415039
vt 0.8056641 0.6064453
vt 0.8007813 0.7070313
vt 0.8056641 0.8076172
vt 0.6923828 0.8071289
vt 0.6987305 0.7070313
vt 0.6923828 0.6074219
vt 0.65625 0.5698242
vt 0.6591797 0.6494141
vt 0.6713867 0.6455078
vt 0.6689453 0.5761719
vt 0.644043 0.7519531
vt 0.65625 0.7519531
vt 0.6713867 0.6508789
vt 0.6704102 0.8530273
vt 0.6582031 0.8544922
vt 0.6547852 0.9331055
vt 0.6669922 0.9267578
vt 0.6704102 0.8579102
vt 0.6557617 0.9819336
vt 0.6679688 0.9716797
vt 0.6665039 0.9360352
vt 0.6577148 0.5195313
vt 0.668457 0.5664063
vt 0.6699219 0.5302734
vt 0.6738281 0.009880066
vt 0.6845703 0.06311035
vt 0.6972656 0.05892944
vt 0.6884766 0.01960754
vt 0.6977539 0.1461182
vt 0.7109375 0.1405029
vt 0.6987305 0.06817627
vt 0.6860352 0.25
vt 0.6982422 0.25
vt 0.7109375 0.1470947
vt 0.7109375 0.3527832
vt 0.6977539 0.3537598
vt 0.6855469 0.4350586
vt 0.6992188 0.4301758
vt 0.7109375 0.3591309
vt 0.6757813 0.4868164
vt 0.6899414 0.4770508
vt 0.6982422 0.4387207
vt 0.8491211 0.6772461
vt 0.8305664 0.6748047
vt 0.8383789 0.7148438
vt 0.8486328 0.6201172
vt 0.8320313 0.6201172
vt 0.8491211 0.5634766
vt 0.8305664 0.565918
vt 0.8378906 0.527832
vn 0.5560471 0.04934001 0.8296851
vn 0.5666771 -0.011471 0.8238601
vn 0.097431 -0.002062 0.9952401
vn 0.09749798 0.02471099 0.9949288
vn 0 0.0007249998 0.9999998
vn 0 0.015475 0.9998803
vn -0.097431 -0.002062 0.9952401
vn -0.09749896 0.02471199 0.9949287
vn -0.5666777 -0.01147099 0.8238596
vn -0.5560481 0.04934002 0.8296843
vn -0.9997563 -0.022052 -0.001086
vn -0.9968035 0.07962696 -0.006499996
vn 0.9968035 0.07962696 -0.006501997
vn 0.9997563 -0.022052 -0.001086
vn 0.100461 -0.02872201 0.9945263
vn 0.5700307 -0.08148597 0.8175727
vn 0 -0.010247 0.9999475
vn -0.100461 -0.02872201 0.9945263
vn -0.5700312 -0.08148703 0.8175723
vn -0.9900176 -0.1408749 -0.004395998
vn 0.9900176 -0.1408749 -0.004395998
vn 0.11071 -0.067435 0.9915623
vn 0.5756271 -0.144402 0.8048611
vn 0 -0.03705202 0.9993134
vn -0.11071 -0.06743602 0.9915623
vn -0.575627 -0.144403 0.8048611
vn -0.9721292 -0.2342481 0.009627003
vn 0.9721292 -0.2342481 0.009627003
vn 0.086738 -0.145593 0.985535
vn 0.5254719 -0.202019 0.826479
vn 4E-06 -0.125245 0.9921259
vn -0.08680195 -0.1456729 0.9855176
vn -0.5254581 -0.2021641 0.8264523
vn -0.9525513 -0.2967621 0.06766202
vn 0.9525352 -0.2968071 0.06769201
vn 0.04747201 -0.217868 0.9748231
vn 0.4149588 -0.2425309 0.8769196
vn 0 -0.201647 0.9794582
vn -0.04776299 -0.21802 0.9747748
vn -0.415062 -0.2426649 0.8768337
vn -0.9143788 -0.337292 0.223932
vn 0.9124057 -0.3398749 0.2280369
vn 0.01616412 -0.3008582 0.9535319
vn 0.3032666 -0.3230656 0.8964697
vn 0.3344025 -0.9240552 0.1851942
vn -0.01936103 -0.7970913 0.6035483
vn -1.573411E-07 -0.2748318 0.9614923
vn -0.01936103 -0.7970913 0.6035483
vn 3.235447E-05 -0.8072523 0.5902064
vn -0.01698672 -0.3023433 0.9530478
vn 0.01513597 -0.7952569 0.6060835
vn -0.3066296 -0.3226401 0.8954785
vn 0.01513597 -0.7952569 0.6060835
vn -0.3078368 -0.9181527 0.2494633
vn -0.8362398 -0.4308621 0.3392063
vn -0.3078368 -0.9181527 0.2494633
vn 0.8218386 -0.4375503 0.3648712
vn 0.3344025 -0.9240552 0.1851942
vn -0.9968035 0.07962696 -0.006499996
vn -0.9997563 -0.022052 -0.001086
vn -0.6262251 -0.012616 -0.7795402
vn -0.6060901 0.06705801 -0.7925642
vn -0.170404 -0.003175001 -0.9853691
vn -0.1610199 0.05774098 -0.9852607
vn 0 0.000229 -1
vn 0 0.05331897 -0.9985776
vn 0.170404 -0.003175001 -0.9853691
vn 0.1610189 0.05774098 -0.9852608
vn 0.626224 -0.012616 -0.7795411
vn 0.6060891 0.067058 -0.7925651
vn 0.9997563 -0.022052 -0.001086
vn 0.9968035 0.07962696 -0.006501997
vn -0.6192579 -0.105358 -0.778087
vn -0.9900176 -0.1408749 -0.004395998
vn -0.166685 -0.071396 -0.983422
vn 0 -0.05763598 -0.9983376
vn 0.166685 -0.071396 -0.983422
vn 0.6192573 -0.1053581 -0.7780875
vn 0.9900176 -0.1408749 -0.004395998
vn -0.6101571 -0.197022 -0.7673921
vn -0.9721292 -0.2342481 0.009627003
vn -0.1662789 -0.1550929 -0.9738056
vn 0 -0.136132 -0.9906907
vn 0.1662789 -0.1550929 -0.9738056
vn 0.6101568 -0.1970209 -0.7673927
vn 0.9721292 -0.2342481 0.009627003
vn -0.5906173 -0.2604401 -0.7637684
vn -0.9525513 -0.2967621 0.06766202
vn -0.162513 -0.219653 -0.961947
vn 0 -0.2009299 -0.9796056
vn 0.1626559 -0.2197629 -0.9618977
vn 0.5908371 -0.2607191 -0.7635032
vn 0.9525352 -0.2968071 0.06769201
vn -0.5749438 -0.3275969 -0.7497467
vn -0.9143788 -0.337292 0.223932
vn -0.172926 -0.319934 -0.931525
vn 0 -0.3230209 -0.9463918
vn 0.17592 -0.3240421 -0.9295423
vn 0.575996 -0.331809 -0.7470819
vn 0.9124057 -0.3398749 0.2280369
vn -0.4725521 -0.5286852 -0.7051144
vn -0.8362398 -0.4308621 0.3392063
vn -0.3078368 -0.9181527 0.2494633
vn -0.1329532 -0.6153552 -0.7769566
vn -0.3078368 -0.9181527 0.2494633
vn -0.01524517 -0.9977348 -0.06551944
vn 5.488821E-05 -0.6014633 -0.7989004
vn -0.01524517 -0.9977348 -0.06551944
vn 0.0001528276 -0.999209 -0.03976805
vn 0.1390026 -0.6203701 -0.7718933
vn 0.02978275 -0.9961107 -0.08292458
vn 0.4823183 -0.5277849 -0.699151
vn 0.02978275 -0.9961107 -0.08292458
vn 0.3344025 -0.9240552 0.1851942
vn 0.8218386 -0.4375503 0.3648712
vn 0.3344025 -0.9240552 0.1851942
vn 0.04686 0.9855752 0.1626211
vn 0.014898 0.9840522 0.177255
vn -1.999999E-06 0.9819536 0.1891219
vn -2E-06 0.9830751 0.183203
vn -0.014805 0.9840551 0.177247
vn -0.046894 0.985572 0.162631
vn -0.02961498 0.9815115 0.1890979
vn -9.999998E-07 0.9820377 0.1886849
vn 0.029586 0.9815119 0.189101
vn 0.2435226 0.911108 0.3325341
vn 0.3462752 0.9277595 0.139125
vn 0.272516 0.96069 -0.05300679
vn -0.3470132 0.9278434 0.136706
vn -0.2709615 0.9612897 -0.05001972
vn -0.2438268 0.9108697 0.3329638
vn 0.02131981 0.8254809 0.5640272
vn -2.044438E-06 0.8516846 0.5240546
vn -0.02071276 0.8259755 0.5633253
vn 0.0254753 0.9518809 -0.3054072
vn 1.261192E-06 0.9740378 -0.2263856
vn -0.0274025 0.9527231 -0.3026017
vn 0.5402916 0.1592744 0.8262667
vn 0.09191748 0.1574386 0.9832417
vn -0.02071276 0.8259755 0.5633253
vn 0.2435226 0.911108 0.3325341
vn -9.514705E-07 0.1352547 0.9908109
vn -2.044438E-06 0.8516846 0.5240546
vn -0.02071276 0.8259755 0.5633253
vn 0.02131981 0.8254809 0.5640272
vn -0.09184118 0.1569989 0.9833191
vn -0.540347 0.1585904 0.826362
vn -0.2438268 0.9108697 0.3329638
vn 0.02131981 0.8254809 0.5640272
vn -0.982488 0.1831968 -0.03400517
vn -0.3470132 0.9278434 0.136706
vn -0.2438268 0.9108697 0.3329638
vn 0.9826328 0.1824401 -0.03388886
vn 0.2435226 0.911108 0.3325341
vn 0.3462752 0.9277595 0.139125
vn -0.982488 0.1831968 -0.03400517
vn -0.573298 0.1841992 -0.7983733
vn -0.2709615 0.9612897 -0.05001972
vn -0.3470132 0.9278434 0.136706
vn -0.1460647 0.2045617 -0.9678944
vn -0.0274025 0.9527231 -0.3026017
vn -0.2709615 0.9612897 -0.05001972
vn 1.037472E-06 0.1894799 -0.9818845
vn 1.261192E-06 0.9740378 -0.2263856
vn -0.0274025 0.9527231 -0.3026017
vn 0.0254753 0.9518809 -0.3054072
vn 0.1456892 0.2031761 -0.9682428
vn 0.5732969 0.1818889 -0.7989036
vn 0.272516 0.96069 -0.05300679
vn 0.0254753 0.9518809 -0.3054072
vn 0.9826328 0.1824401 -0.03388886
vn 0.3462752 0.9277595 0.139125
vn 0.272516 0.96069 -0.05300679
vn 0.02978275 -0.9961107 -0.08292458
vn -0.01936103 -0.7970913 0.6035483
vn 0.3344025 -0.9240552 0.1851942
vn 0.0001528276 -0.999209 -0.03976805
vn 3.235447E-05 -0.8072523 0.5902064
vn -0.01524517 -0.9977348 -0.06551944
vn 0.01513597 -0.7952569 0.6060835
vn -0.3078368 -0.9181527 0.2494633
g Fish_Fillet_Whole_0
f 3/3/3 2/2/2 1/1/1
f 4/4/4 3/3/3 1/1/1
f 5/5/5 3/3/3 4/4/4
f 6/6/6 5/5/5 4/4/4
f 7/7/7 5/5/5 6/6/6
f 8/8/8 7/7/7 6/6/6
f 9/9/9 7/7/7 8/8/8
f 10/10/10 9/9/9 8/8/8
f 11/11/11 9/9/9 10/10/10
f 12/12/12 11/11/11 10/10/10
f 1/1/1 2/2/2 13/13/13
f 2/2/2 14/14/14 13/13/13
f 3/3/3 15/15/15 2/2/2
f 15/15/15 16/16/16 2/2/2
f 2/2/2 16/16/16 14/14/14
f 17/17/17 15/15/15 3/3/3
f 5/5/5 17/17/17 3/3/3
f 18/18/18 17/17/17 5/5/5
f 7/7/7 18/18/18 5/5/5
f 19/19/19 18/18/18 7/7/7
f 9/9/9 19/19/19 7/7/7
f 20/20/20 19/19/19 9/9/9
f 11/11/11 20/20/20 9/9/9
f 16/16/16 21/21/21 14/14/14
f 15/15/15 22/22/22 16/16/16
f 22/22/22 23/23/23 16/16/16
f 16/16/16 23/23/23 21/21/21
f 24/24/24 22/22/22 15/15/15
f 17/17/17 24/24/24 15/15/15
f 25/25/25 24/24/24 17/17/17
f 18/18/18 25/25/25 17/17/17
f 26/26/26 25/25/25 18/18/18
f 19/19/19 26/26/26 18/18/18
f 27/27/27 26/26/26 19/19/19
f 20/20/20 27/27/27 19/19/19
f 23/23/23 28/28/28 21/21/21
f 22/22/22 29/29/29 23/23/23
f 29/29/29 30/30/30 23/23/23
f 23/23/23 30/30/30 28/28/28
f 31/31/31 29/29/29 22/22/22
f 24/24/24 31/31/31 22/22/22
f 32/32/32 31/31/31 24/24/24
f 25/25/25 32/32/32 24/24/24
f 33/33/33 32/32/32 25/25/25
f 26/26/26 33/33/33 25/25/25
f 34/34/34 33/33/33 26/26/26
f 27/27/27 34/34/34 26/26/26
f 30/30/30 35/35/35 28/28/28
f 29/29/29 36/36/36 30/30/30
f 36/36/36 37/37/37 30/30/30
f 30/30/30 37/37/37 35/35/35
f 38/38/38 36/36/36 29/29/29
f 31/31/31 38/38/38 29/29/29
f 39/39/39 38/38/38 31/31/31
f 32/32/32 39/39/39 31/31/31
f 40/40/40 39/39/39 32/32/32
f 33/33/33 40/40/40 32/32/32
f 41/41/41 40/40/40 33/33/33
f 34/34/34 41/41/41 33/33/33
f 37/37/37 42/42/42 35/35/35
f 36/36/36 43/43/43 37/37/37
f 43/43/43 44/44/44 37/37/37
f 37/37/37 44/44/44 42/42/42
f 44/44/44 43/43/43 45/45/45
f 43/43/43 46/46/46 45/45/45
f 47/47/47 43/43/43 36/36/36
f 38/38/38 47/47/47 36/36/36
f 43/43/43 47/47/47 48/48/48
f 47/47/47 49/49/49 48/48/48
f 47/47/47 50/50/50 49/49/49
f 50/50/50 47/47/47 38/38/38
f 39/39/39 50/50/50 38/38/38
f 50/50/50 51/51/51 49/49/49
f 52/52/52 50/50/50 39/39/39
f 40/40/40 52/52/52 39/39/39
f 50/50/50 52/52/52 53/53/53
f 52/52/52 54/54/54 53/53/53
f 55/55/55 52/52/52 40/40/40
f 41/41/41 55/55/55 40/40/40
f 52/52/52 55/55/55 56/56/56
f 44/44/44 57/57/57 42/42/42
f 58/58/58 57/57/57 44/44/44
f 61/61/61 60/60/60 59/59/59
f 62/62/62 61/61/61 59/59/59
f 63/63/63 61/61/61 62/62/62
f 64/64/64 63/63/63 62/62/62
f 65/65/65 63/63/63 64/64/64
f 66/66/66 65/65/65 64/64/64
f 67/67/67 65/65/65 66/66/66
f 68/68/68 67/67/67 66/66/66
f 69/69/69 67/67/67 68/68/68
f 70/70/70 69/69/69 68/68/68
f 71/71/71 69/69/69 70/70/70
f 72/72/72 71/71/71 70/70/70
f 61/61/61 73/73/73 60/60/60
f 73/73/73 74/74/74 60/60/60
f 75/75/75 73/73/73 61/61/61
f 63/63/63 75/75/75 61/61/61
f 76/76/76 75/75/75 63/63/63
f 65/65/65 76/76/76 63/63/63
f 77/77/77 76/76/76 65/65/65
f 67/67/67 77/77/77 65/65/65
f 78/78/78 77/77/77 67/67/67
f 69/69/69 78/78/78 67/67/67
f 79/79/79 78/78/78 69/69/69
f 71/71/71 79/79/79 69/69/69
f 73/73/73 80/80/80 74/74/74
f 80/80/80 81/81/81 74/74/74
f 82/82/82 80/80/80 73/73/73
f 75/75/75 82/82/82 73/73/73
f 83/83/83 82/82/82 75/75/75
f 76/76/76 83/83/83 75/75/75
f 84/84/84 83/83/83 76/76/76
f 77/77/77 84/84/84 76/76/76
f 85/85/85 84/84/84 77/77/77
f 78/78/78 85/85/85 77/77/77
f 86/86/86 85/85/85 78/78/78
f 79/79/79 86/86/86 78/78/78
f 80/80/80 87/87/87 81/81/81
f 87/87/87 88/88/88 81/81/81
f 89/89/89 87/87/87 80/80/80
f 82/82/82 89/89/89 80/80/80
f 90/90/90 89/89/89 82/82/82
f 83/83/83 90/90/90 82/82/82
f 91/91/91 90/90/90 83/83/83
f 84/84/84 91/91/91 83/83/83
f 92/92/92 91/91/91 84/84/84
f 85/85/85 92/92/92 84/84/84
f 93/93/93 92/92/92 85/85/85
f 86/86/86 93/93/93 85/85/85
f 87/87/87 94/94/94 88/88/88
f 94/94/94 95/95/95 88/88/88
f 96/96/96 94/94/94 87/87/87
f 89/89/89 96/96/96 87/87/87
f 97/97/97 96/96/96 89/89/89
f 90/90/90 97/97/97 89/89/89
f 98/98/98 97/97/97 90/90/90
f 91/91/91 98/98/98 90/90/90
f 99/99/99 98/98/98 91/91/91
f 92/92/92 99/99/99 91/91/91
f 100/100/100 99/99/99 92/92/92
f 93/93/93 100/100/100 92/92/92
f 94/94/94 101/101/101 95/95/95
f 101/101/101 102/102/102 95/95/95
f 102/102/102 101/101/101 103/103/103
f 104/104/104 101/101/101 94/94/94
f 96/96/96 104/104/104 94/94/94
f 101/101/101 104/104/104 105/105/105
f 104/104/104 106/106/106 105/105/105
f 107/107/107 104/104/104 96/96/96
f 97/97/97 107/107/107 96/96/96
f 104/104/104 107/107/107 108/108/108
f 107/107/107 109/109/109 108/108/108
f 107/107/107 110/110/110 109/109/109
f 110/110/110 107/107/107 97/97/97
f 98/98/98 110/110/110 97/97/97
f 110/110/110 111/111/111 109/109/109
f 112/112/112 110/110/110 98/98/98
f 99/99/99 112/112/112 98/98/98
f 110/110/110 112/112/112 113/113/113
f 112/112/112 114/114/114 113/113/113
f 115/115/115 112/112/112 99/99/99
f 112/112/112 115/115/115 116/116/116
f 100/100/100 115/115/115 99/99/99
f 119/119/119 118/118/118 117/117/117
f 120/120/120 119/119/119 117/117/117
f 121/121/121 119/119/119 120/120/120
f 122/122/122 121/121/121 120/120/120
f 121/121/121 123/123/123 119/119/119
f 123/123/123 124/124/124 119/119/119
f 118/118/118 119/119/119 124/124/124
f 125/125/125 118/118/118 124/124/124
f 121/121/121 122/122/122 126/126/126
f 127/127/127 121/121/121 126/126/126
f 121/121/121 127/127/127 128/128/128
f 123/123/123 121/121/121 128/128/128
f 118/118/118 125/125/125 129/129/129
f 125/125/125 130/130/130 129/129/129
f 118/118/118 129/129/129 131/131/131
f 117/117/117 118/118/118 131/131/131
f 117/117/117 131/131/131 132/132/132
f 117/117/117 132/132/132 133/133/133
f 120/120/120 117/117/117 133/133/133
f 120/120/120 133/133/133 134/134/134
f 122/122/122 120/120/120 134/134/134
f 122/122/122 134/134/134 126/126/126
f 123/123/123 128/128/128 135/135/135
f 123/123/123 135/135/135 124/124/124
f 135/135/135 136/136/136 124/124/124
f 124/124/124 136/136/136 137/137/137
f 125/125/125 124/124/124 137/137/137
f 125/125/125 137/137/137 130/130/130
f 140/140/140 139/139/139 138/138/138
f 141/141/141 140/140/140 138/138/138
f 139/139/139 4/4/4 138/138/138
f 4/4/4 1/1/1 138/138/138
f 6/6/6 4/4/4 139/139/139
f 142/142/142 6/6/6 139/139/139
f 143/143/143 142/142/142 139/139/139
f 144/144/144 143/143/143 139/139/139
f 143/143/143 145/145/145 142/142/142
f 145/145/145 146/146/146 142/142/142
f 8/8/8 6/6/6 142/142/142
f 146/146/146 8/8/8 142/142/142
f 10/10/10 8/8/8 146/146/146
f 147/147/147 10/10/10 146/146/146
f 148/148/148 147/147/147 146/146/146
f 149/149/149 148/148/148 146/146/146
f 12/12/12 10/10/10 147/147/147
f 150/150/150 12/12/12 147/147/147
f 151/151/151 150/150/150 147/147/147
f 152/152/152 151/151/151 147/147/147
f 1/1/1 13/13/13 153/153/153
f 138/138/138 1/1/1 153/153/153
f 138/138/138 153/153/153 154/154/154
f 153/153/153 155/155/155 154/154/154
f 158/158/158 157/157/157 156/156/156
f 159/159/159 158/158/158 156/156/156
f 157/157/157 62/62/62 156/156/156
f 62/62/62 59/59/59 156/156/156
f 64/64/64 62/62/62 157/157/157
f 160/160/160 64/64/64 157/157/157
f 161/161/161 160/160/160 157/157/157
f 162/162/162 161/161/161 157/157/157
f 66/66/66 64/64/64 160/160/160
f 163/163/163 66/66/66 160/160/160
f 164/164/164 163/163/163 160/160/160
f 165/165/165 164/164/164 160/160/160
f 164/164/164 166/166/166 163/163/163
f 166/166/166 167/167/167 163/163/163
f 68/68/68 66/66/66 163/163/163
f 167/167/167 68/68/68 163/163/163
f 70/70/70 68/68/68 167/167/167
f 168/168/168 70/70/70 167/167/167
f 169/169/169 168/168/168 167/167/167
f 170/170/170 169/169/169 167/167/167
f 72/72/72 70/70/70 168/168/168
f 171/171/171 72/72/72 168/168/168
f 172/172/172 171/171/171 168/168/168
f 173/173/173 172/172/172 168/168/168
f 176/176/176 175/175/175 174/174/174
f 174/174/174 175/175/175 177/177/177
f 175/175/175 178/178/178 177/177/177
f 177/177/177 178/178/178 179/179/179
f 178/178/178 180/180/180 179/179/179
f 179/179/179 180/180/180 181/181/181
