g pPlane275
v 0.04888079 0.01633583 0.2184102
v 0.01045306 0.02269011 0.2491183
v 0.005555597 2.099293E-09 0.1462325
v 0.0608388 2.099293E-09 0.1436031
v 0.0006581359 -0.0226901 0.04335165
v 0.04183001 -0.01633583 0.07026815
v -0.04973249 2.099293E-09 0.1488692
v -0.0307237 0.01633583 0.2222017
v -0.03777448 -0.01633583 0.07405722
v 0.03747454 -0.015217 -0.0734916
v -0.0009531922 -0.02113605 -0.04269326
v -0.005865301 2.099293E-09 -0.1459037
v 0.0494179 2.099293E-09 -0.148538
v -0.01078229 0.02113604 -0.2491166
v 0.03039934 0.01521698 -0.2221098
v -0.06115339 2.099293E-09 -0.1432743
v -0.04212995 -0.015217 -0.06970254
v -0.04920514 0.01521698 -0.2183158
v -0.226671 0.01633583 0.04405966
v -0.2555137 0.02269011 0.004211032
v -0.1525157 2.099293E-09 0.004211032
v -0.1525157 2.099293E-09 0.05955771
v -0.04951765 -0.0226901 0.004211032
v -0.07836042 -0.01633583 0.04405966
v -0.1525157 2.099293E-09 -0.05113321
v -0.226671 0.01633583 -0.03563516
v -0.07836042 -0.01633583 -0.03563516
v 0.07779192 -0.015217 0.04405966
v 0.04885638 -0.02113605 0.004211032
v 0.1521865 2.099293E-09 0.004211032
v 0.1521865 2.099293E-09 0.05955771
v 0.2555116 0.02113604 0.004211032
v 0.2265761 0.01521698 0.04405966
v 0.1521865 2.099293E-09 -0.05113321
v 0.07779192 -0.015217 -0.03563516
v 0.2265761 0.01521698 -0.03563516
vt 0 0
vt 0 0.5
vt 0.5 0.5
vt 0.5 0
vt 1 0.5
vt 1 0
vt 0.5 1
vt 0 1
vt 1 1
vt 0 0
vt 0 0.5
vt 0.5 0.5
vt 0.5 0
vt 1 0.5
vt 1 0
vt 0.5 1
vt 0 1
vt 1 1
vt 0 0
vt 0 0.5
vt 0.5 0.5
vt 0.5 0
vt 1 0.5
vt 1 0
vt 0.5 1
vt 0 1
vt 1 1
vt 0 0
vt 0 0.5
vt 0.5 0.5
vt 0.5 0
vt 1 0.5
vt 1 0
vt 0.5 1
vt 0 1
vt 1 1
vn -0.01021225 0.9765882 -0.2148747
vn -0.01023569 0.9765843 -0.2148917
vn -0.01023277 0.9765843 -0.2148916
vn -0.01021892 0.9765838 -0.2148944
vn -0.01022986 0.9765844 -0.2148915
vn -0.0102256 0.9765794 -0.2149141
vn -0.01024662 0.9765847 -0.2148888
vn -0.01025912 0.9765803 -0.2149088
vn -0.01023412 0.9765893 -0.2148689
vn 0.009532933 0.9797136 0.2001754
vn 0.009533147 0.9797125 0.2001816
vn 0.009535726 0.9797139 0.2001746
vn 0.009535332 0.9797155 0.2001664
vn 0.009538305 0.9797152 0.2001677
vn 0.009537731 0.9797173 0.2001573
vn 0.009536119 0.9797121 0.2001829
vn 0.009533362 0.9797111 0.2001877
vn 0.009538878 0.9797131 0.200178
vn 0.2151395 0.9765834 3.90319E-06
vn 0.2151444 0.9765822 0
vn 0.2151368 0.976584 0
vn 0.2151318 0.976585 0
vn 0.2151291 0.9765856 0
vn 0.2151242 0.9765866 -3.81225E-06
vn 0.2151416 0.9765829 0
vn 0.2151493 0.9765811 -3.903367E-06
vn 0.215134 0.9765845 3.903195E-06
vn -0.2004028 0.9797135 -3.970959E-06
vn -0.2003962 0.9797149 0
vn -0.2004025 0.9797136 0
vn -0.2004036 0.9797134 -1.622456E-06
vn -0.2004089 0.9797124 0
vn -0.2004044 0.9797133 7.26187E-07
vn -0.2004015 0.9797139 1.668023E-06
vn -0.2003896 0.9797163 3.971159E-06
vn -0.2004135 0.9797114 -6.354424E-07
g pPlane275_0
f 3/3/3 2/2/2 1/1/1
f 4/4/4 3/3/3 1/1/1
f 5/5/5 3/3/3 4/4/4
f 6/6/6 5/5/5 4/4/4
f 3/3/3 7/7/7 2/2/2
f 7/7/7 8/8/8 2/2/2
f 9/9/9 7/7/7 3/3/3
f 5/5/5 9/9/9 3/3/3
f 12/12/12 11/11/11 10/10/10
f 13/13/13 12/12/12 10/10/10
f 14/14/14 12/12/12 13/13/13
f 15/15/15 14/14/14 13/13/13
f 12/12/12 16/16/16 11/11/11
f 16/16/16 17/17/17 11/11/11
f 18/18/18 16/16/16 12/12/12
f 14/14/14 18/18/18 12/12/12
f 21/21/21 20/20/20 19/19/19
f 22/22/22 21/21/21 19/19/19
f 23/23/23 21/21/21 22/22/22
f 24/24/24 23/23/23 22/22/22
f 21/21/21 25/25/25 20/20/20
f 25/25/25 26/26/26 20/20/20
f 27/27/27 25/25/25 21/21/21
f 23/23/23 27/27/27 21/21/21
f 30/30/30 29/29/29 28/28/28
f 31/31/31 30/30/30 28/28/28
f 32/32/32 30/30/30 31/31/31
f 33/33/33 32/32/32 31/31/31
f 30/30/30 34/34/34 29/29/29
f 34/34/34 35/35/35 29/29/29
f 36/36/36 34/34/34 30/30/30
f 32/32/32 36/36/36 30/30/30
